# AST/ASF file generated using VICON BodyLanguage
# -----------------------------------------------
:version 1.10
:name VICON
:units
  mass 1.0
  length 0.45
  angle deg
:documentation
   .ast/.asf automatically generated from VICON data using
   VICON BodyBuilder and BodyLanguage model FoxedUp or BRILLIANT.MOD
:root
   order TX TY TZ RX RY RZ
   axis XYZ
   position 0 0 0  
   orientation 0 0 0 
:bonedata
  begin
     id 1 
     name lhipjoint
     direction 0.570549 -0.739093 0.358072 
     length 2.41801 
     axis 0 0 0  XYZ
  end
  begin
     id 2 
     name lfemur
     direction 0.34202 -0.939693 0  
     length 7.44434  
     axis 0 0 20  XYZ
    dof rx ry rz
    limits (-160.0 20.0)
           (-70.0 70.0)
           (-60.0 70.0)
  end
  begin
     id 3 
     name ltibia
     direction 0.34202 -0.939693 0   
     length 7.60047   
     axis 0 0 20   XYZ
    dof rx
    limits (-10.0 170.0)
  end
  begin
     id 4 
     name lfoot
     direction 0.0909041 -0.249757 0.964032   
     length 2.03437   
     axis -90 7.62852e-016 20   XYZ
    dof rx rz
    limits (-45.0 90.0)
           (-70.0 20.0)
  end
  begin
     id 5 
     name ltoes
     direction 1.53547e-011 -4.2174e-011 1   
     length 1.02054   
     axis -90 7.62852e-016 20   XYZ
    dof rx
    limits (-90.0 20.0)
  end
  begin
     id 6 
     name rhipjoint
     direction -0.558096 -0.746754 0.361784   
     length 2.3932  
     axis 0 0 0  XYZ 
  end
  begin
     id 7 
     name rfemur
     direction -0.34202 -0.939693 0   
     length 7.3886   
     axis 0 0 -20   XYZ
    dof rx ry rz
    limits (-160.0 20.0)
           (-70.0 70.0)
           (-70.0 60.0)
  end
  begin
     id 8 
     name rtibia
     direction -0.34202 -0.939693 0   
     length 7.4839   
     axis 0 0 -20   XYZ
    dof rx
    limits (-10.0 170.0)
 end
 begin
     id 9 
     name rfoot
     direction -0.114619 -0.314914 0.942174   
     length 2.25127  
     axis -90 -7.62852e-016 -20   XYZ
    dof rx rz
    limits (-45.0 90.0)
           (-20.0 70.0)
  end
  begin
     id 10 
     name rtoes
     direction -1.53518e-011 -4.21881e-011 1   
     length 1.11821   
     axis -90 -7.62852e-016 -20   XYZ
    dof rx
    limits (-90.0 20.0)
  end
  begin
     id 11 
     name lowerback
     direction -0.00902269 0.996426 -0.0839821   
     length 2.25052   
     axis 0 0 0   XYZ
    dof rx ry rz
    limits (-20.0 45.0)
           (-30.0 30.0)
           (-30.0 30.0)
  end
  begin
     id 12 
     name upperback
     direction 0.0370973 0.999169 -0.0168941   
     length 2.24876   
     axis 0 0 0   XYZ
    dof rx ry rz
    limits (-20.0 45.0)
           (-30.0 30.0)
           (-30.0 30.0)
  end
  begin
     id 13 
     name thorax
     direction 0.0402726 0.998931 0.0227027   
     length 2.26408   
     axis 0 0 0   XYZ
    dof rx ry rz
    limits (-20.0 45.0)
           (-30.0 30.0)
           (-30.0 30.0)
  end
  begin
     id 14 
     name lowerneck
     direction -0.0733697 0.98508 0.155675   
     length 1.58204   
     axis 0 0 0   XYZ
    dof rx ry rz
    limits (-20.0 45.0)
           (-30.0 30.0)
           (-30.0 30.0)
  end
  begin
     id 15 
     name upperneck
     direction 0.0426554 0.993501 -0.105526   
     length 1.61222   
     axis 0 0 0   XYZ
    dof rx ry rz
    limits (-20.0 45.0)
           (-30.0 30.0)
           (-30.0 30.0)
  end
  begin
     id 16
     name head
     direction 0.020792 0.998384 -0.0528868  
     length 1.61527  
     axis 0 0 0   XYZ
    dof rx ry rz
    limits (-20.0 45.0)
           (-30.0 30.0)
           (-30.0 30.0)
  end
  begin
     id 17 
     name lclavicle
     direction 0.967109 0.155462 -0.201325  
     length 3.59357  
     axis 0 0 0   XYZ
    dof ry rz
    limits (-20.0 10.0)
           (0.0 20.0)
  end
  begin
     id 18 
     name lhumerus
     direction 1 -4.48968e-011 2.38195e-027   
     length 5.38154   
     axis 180 -30 -90   XYZ
    dof rx ry rz
    limits (-60.0 90.0)
           (-90.0 90.0)
           (-90.0 90.0)
  end
  begin
     id 19
     name lradius
     direction 1 -4.48961e-011 4.85371e-027   
     length 3.33312   
     axis 180 -30 -90   XYZ
    dof rx
    limits (-10.0 170.0)
  end
  begin
     id 20
     name lwrist
     direction 1 -4.48961e-011 4.76515e-027   
     length 1.66656   
     axis -3.27502e-015 90 90   XYZ
    dof ry
    limits (-180.0 0.0)
 end
  begin
     id 21 
     name lhand
     direction 1 -4.48951e-011 9.53074e-027   
     length 0.710789   
     axis -6.08098e-015 90 90   XYZ
    dof rx rz
    limits (-90.0 90.0)
           (-45.0 45.0)
  end
  begin
     id 22 
     name lfingers
     direction 1 -4.48953e-011 1.90613e-026   
     length 0.573057   
     axis -1.21619e-014 90 90   XYZ
    dof rx
    limits (0.0 90.0)
  end
  begin
     id 23
     name lthumb
     direction 0.707107 -6.34973e-011 0.707107   
     length 0.822798   
     axis -90 45 -9.86923e-015   XYZ
    dof rx rz
    limits (-45.0 45.0)
           (-45.0 45.0)
  end
  begin
     id 24 
     name rclavicle
     direction -0.9585 0.265289 -0.104398   
     length 3.42039  
     axis 0 0 0   XYZ 
    dof ry rz
    limits (-10.0 20.0)
           (-20.0 0.0)
  end
  begin
     id 25 
     name rhumerus
     direction -1 -4.48977e-011 2.21478e-027  
     length 5.16954   
     axis 180 30 90   XYZ
    dof rx ry rz
    limits (-90.0 60.0)
           (-90.0 90.0)
           (-90.0 90.0)
  end
  begin
     id 26 
     name rradius
     direction -1 -4.48967e-011 5.63677e-027   
     length 3.38287   
     axis 180 30 90   XYZ
    dof rx
    limits (-10.0 170.0)
  end
  begin
     id 27 
     name rwrist
     direction -1 -4.48967e-011 4.76501e-027   
     length 1.69144   
     axis -3.27502e-015 -90 -90   XYZ
    dof ry
    limits (-180.0 0.0)
  end
  begin
     id 28
     name rhand
     direction -1 -4.48902e-011 9.53292e-027   
     length 0.817967   
     axis -6.08098e-015 -90 -90   XYZ
    dof rx rz
    limits (-90.0 90.0)
           (-45.0 45.0)
  end
  begin
     id 29
     name rfingers
     direction -1 -4.49012e-011 1.90561e-026   
     length 0.659466   
     axis -1.21619e-014 -90 -90   XYZ
    dof rx
    limits (0.0 90.0)
  end
  begin
     id 30
     name rthumb
     direction -0.707107 -6.34944e-011 0.707107   
     length 0.946865   
     axis -90 -45 9.86923e-015   XYZ
    dof rx rz
    limits (-45.0 45.0)
           (-45.0 45.0)
  end
:hierarchy
  begin
    root lhipjoint rhipjoint lowerback
    lhipjoint lfemur
    lfemur ltibia
    ltibia lfoot
    lfoot ltoes
    rhipjoint rfemur
    rfemur rtibia
    rtibia rfoot
    rfoot rtoes
    lowerback upperback
    upperback thorax
    thorax lowerneck lclavicle rclavicle
    lowerneck upperneck
    upperneck head
    lclavicle lhumerus
    lhumerus lradius
    lradius lwrist
    lwrist lhand lthumb
    lhand lfingers
    rclavicle rhumerus
    rhumerus rradius
    rradius rwrist
    rwrist rhand rthumb
    rhand rfingers
  end

#!OML:ASF F:\twosubjects\two\wednesday\Session 1\Justin1.ASF
:FULLY-SPECIFIED
:DEGREES
132
root 2.98832 17.2478 5.41666 183.733 23.0131 -174.691
lowerback 2.73544 1.02555 4.10864
upperback 1.18569 1.85714 5.65694
thorax -0.382914 1.07837 3.46864
lowerneck -20.0419 -1.23338 -8.46328
upperneck 13.5523 0.289038 2.55213
head 7.43639 -0.0503982 2.24744
rclavicle -2.16675e-014 3.18055e-015
rhumerus 23.669 13.601 -64.3859
rradius 33.3521
rwrist -1.38921
rhand -6.35675 26.0994
rfingers 7.12502
rthumb 19.4894 -2.94378
lclavicle -2.16675e-014 3.18055e-015
lhumerus 31.7746 4.71139 48.058
lradius 34.2514
lwrist -16.8486
lhand 3.63732 33.2494
lfingers 7.12502
lthumb 29.0694 61.0012
rfemur 11.2385 8.07281 20.1885
rtibia 17.4027
rfoot -19.4444 0.124145
rtoes -3.61764
lfemur -27.4743 5.4461 -3.92912
ltibia 20.2066
lfoot -11.3268 15.0016
ltoes -21.887
133
root 2.95411 17.2117 5.2726 184.191 22.9389 -174.351
lowerback 2.47807 0.884411 4.25248
upperback 1.16099 1.66202 5.73007
thorax -0.256565 0.985567 3.476
lowerneck -20.3388 -1.23918 -9.12386
upperneck 13.6401 0.391777 3.12443
head 7.50614 0.0181506 2.55943
rclavicle -2.5842e-014 8.26944e-014
rhumerus 23.9104 13.6234 -64.1546
rradius 33.4298
rwrist -1.24791
rhand -6.20029 26.2208
rfingers 7.12502
rthumb 19.6398 -2.80713
lclavicle -2.5842e-014 8.26944e-014
lhumerus 31.4542 4.86032 48.064
lradius 34.1969
lwrist -16.8264
lhand 3.31497 33.8286
lfingers 7.12502
lthumb 28.7615 61.6331
rfemur 11.0353 7.82275 20.1882
rtibia 17.7952
rfoot -19.012 0.193887
rtoes -9.01151
lfemur -27.7353 6.44623 -4.17221
ltibia 20.4986
lfoot -10.2368 13.9595
ltoes -23.9541
134
root 2.91455 17.1966 5.11222 184.534 22.7764 -174.132
lowerback 2.18855 0.754241 4.34583
upperback 1.11206 1.47366 5.7693
thorax -0.137874 0.894001 3.47511
lowerneck -20.3745 -1.24829 -9.21642
upperneck 13.5856 0.426047 3.04674
head 7.49242 0.0242658 2.55185
rclavicle 7.85199e-015 1.1291e-013
rhumerus 24.0841 13.9955 -63.5361
rradius 33.5852
rwrist -1.66682
rhand -6.38101 26.0027
rfingers 7.12502
rthumb 19.4661 -3.04293
lclavicle 7.85199e-015 1.1291e-013
lhumerus 30.9541 4.9053 48.2068
lradius 34.3201
lwrist -16.7825
lhand 2.96718 33.9789
lfingers 7.12502
lthumb 28.4292 61.8394
rfemur 11.0232 7.6705 19.9876
rtibia 18.1712
rfoot -18.7717 0.70427
rtoes -9.52111
lfemur -28.0253 7.00615 -4.45777
ltibia 21.0191
lfoot -8.15811 13.1055
ltoes -23.5461
135
root 2.88662 17.2123 4.95241 184.596 22.8361 -174.331
lowerback 2.06864 0.85839 3.86896
upperback 1.10363 1.56747 5.6105
thorax -0.0887279 0.928746 3.57695
lowerneck -20.5195 -1.30147 -8.77249
upperneck 13.5665 0.293795 2.75498
head 7.51968 -0.0434909 2.36733
rclavicle 2.0773e-014 3.02153e-014
rhumerus 23.9128 14.1124 -62.8666
rradius 33.9633
rwrist -2.29227
rhand -6.67701 25.9741
rfingers 7.12502
rthumb 19.1814 -3.09997
lclavicle 2.0773e-014 3.02153e-014
lhumerus 30.8735 4.55803 48.2844
lradius 34.3626
lwrist -16.6857
lhand 2.88636 33.7706
lfingers 7.12502
lthumb 28.352 61.644
rfemur 11.0958 7.68186 19.373
rtibia 18.5111
rfoot -18.283 1.29684
rtoes -9.40314
lfemur -28.2944 7.39939 -4.99297
ltibia 21.8107
lfoot -5.65356 12.617
ltoes -20.7595
136
root 2.86234 17.232 4.80986 184.605 22.8916 -174.308
lowerback 2.33146 0.917002 3.50631
upperback 1.06568 1.64132 5.48797
thorax -0.283322 0.955859 3.64415
lowerneck -20.5996 -1.2512 -8.3431
upperneck 13.5782 0.291928 2.49809
head 7.53772 -0.0473393 2.21262
rclavicle 3.6477e-014 -9.54166e-015
rhumerus 23.6637 14.2062 -62.5448
rradius 34.3791
rwrist -2.85229
rhand -6.83544 25.798
rfingers 7.12502
rthumb 19.0291 -3.29116
lclavicle 3.6477e-014 -9.54166e-015
lhumerus 30.9133 4.34515 48.3234
lradius 34.244
lwrist -16.6325
lhand 2.93308 33.8616
lfingers 7.12502
lthumb 28.3966 61.7275
rfemur 11.1416 8.00002 19.1606
rtibia 19.0378
rfoot -17.6115 1.47742
rtoes -9.61742
lfemur -28.4952 7.95326 -5.27813
ltibia 22.6279
lfoot -3.29349 12.4126
ltoes -18.8768
137
root 2.82805 17.231 4.66791 184.574 22.6656 -174.064
lowerback 2.74318 0.710306 3.46512
upperback 1.03623 1.39644 5.49024
thorax -0.536288 0.832425 3.6679
lowerneck -20.4683 -1.07675 -8.08465
upperneck 13.3006 0.495951 2.19824
head 7.41377 0.0412117 2.09231
rclavicle -5.56597e-015 2.8625e-014
rhumerus 23.7238 14.389 -62.5957
rradius 34.5446
rwrist -3.05867
rhand -7.05931 25.5082
rfingers 7.12502
rthumb 18.8138 -3.60197
lclavicle -5.56597e-015 2.8625e-014
lhumerus 30.4856 4.5814 48.3365
lradius 34.2466
lwrist -16.5526
lhand 3.13635 33.8897
lfingers 7.12502
lthumb 28.5908 61.723
rfemur 11.2638 8.08884 19.2021
rtibia 19.789
rfoot -17.0911 1.525
rtoes -10.1892
lfemur -28.7016 8.56738 -5.48708
ltibia 23.4653
lfoot -1.55778 12.3147
ltoes -18.5169
